<svg xmlns="http://www.w3.org/2000/svg" viewBox="0 0 360.08 265.28"><defs><style>.cls-1,.cls-2{fill:#fff}.cls-2{fill-rule:evenodd}</style></defs><title>cru-logo-white</title><g id="Layer_2" data-name="Layer 2"><g id="Master_Logos" data-name="Master Logos"><path class="cls-1" d="M77.24 199.5c-9.05 10.28-18.68 15.07-30.3 15.07-20.69 0-37.53-17.45-37.53-38.9v-.35c0-21.62 16.41-38.56 37.35-38.56 11.45 0 21 4.48 30 14.11l1.91 2 6.7-6.25-1.94-2.05c-7.89-8.36-18.4-16.91-36.51-16.91a46.11 46.11 0 0 0-33.46 14.17A48.11 48.11 0 0 0 0 175.49v.35c0 26.36 21 47.8 46.76 47.8 14.72 0 26.93-5.9 37.3-18l1.74-2-6.66-6.22zM112 146.22v-16.46h-9.24v91.81H112v-47.46c0-15.59 12.11-37.35 31.84-37.35h3.67v-9h-3.14c-14.7 0-25.77 8.17-32.37 18.53M227.34 129.77V181c0 21.33-11 33.56-30.12 33.56s-30.11-12.22-30.11-33.56v-51.23h-9.24v51.59c0 26.08 14.95 42.28 39 42.28h.69c24.06 0 39-16.2 39-42.28v-51.59zM298.1.11v61.58H360v8.96h-70.86V0l8.96.11zM269.1 61.69V18.35l8.97.03v52.27h-53.01v-8.96h44.04zM341.72 81.69v8.96H298.1v86.88h-8.96V81.69h52.58zM278.07 81.69v71.2h-8.97V90.65h-62.05v-8.96h71.02zM314 170.77v6.78h-.77v-6.78h-2.64V170h6v.72zM324.15 171l-2.46 6.5h-.84l-2.48-6.5-.13 6.56h-.75l.25-7.5h1l2.53 6.62 2.49-6.62h1l.24 7.5h-.78z"/><path class="cls-2" d="M112.67 245.9l-3.07 2.71q-1.62-2.25-3.29-2.25a2 2 0 0 0-1.33.45 1.25 1.25 0 0 0-.52 1 1.68 1.68 0 0 0 .37 1 28.52 28.52 0 0 0 3 2.8q2.37 2 2.88 2.5a8.49 8.49 0 0 1 1.78 2.45 6 6 0 0 1 .53 2.53 5.83 5.83 0 0 1-1.85 4.43 6.75 6.75 0 0 1-4.83 1.75 7.21 7.21 0 0 1-4.06-1.14 9 9 0 0 1-2.95-3.59l3.48-2.1q1.57 2.89 3.62 2.89a2.67 2.67 0 0 0 1.79-.62 1.85 1.85 0 0 0 .73-1.44 2.49 2.49 0 0 0-.55-1.48 15.77 15.77 0 0 0-2.41-2.27 24.49 24.49 0 0 1-4.59-4.48 5.73 5.73 0 0 1-1-3.16 5.13 5.13 0 0 1 1.7-3.88 6 6 0 0 1 4.27-1.63 6.67 6.67 0 0 1 3.1.76 11.29 11.29 0 0 1 3.2 2.77z"/><path class="cls-1" d="M128.24 242.93h4.12v21.8h-4.12z"/><path class="cls-2" d="M148.56 242.93h3.98l9.35 14.35v-14.35h4.15v21.8h-3.99l-9.33-14.3v14.3h-4.16v-21.8zM202.65 246.49l-2.92 2.89a8.63 8.63 0 0 0-6.46-2.93 7.4 7.4 0 0 0-5.39 2.13 7 7 0 0 0-2.16 5.19 7.19 7.19 0 0 0 2.25 5.35 7.65 7.65 0 0 0 5.56 2.19 6.77 6.77 0 0 0 3.61-.9 6.36 6.36 0 0 0 2.39-2.83h-6.31v-3.9h11v.92a10.67 10.67 0 0 1-1.48 5.42 10.36 10.36 0 0 1-3.84 3.91 11 11 0 0 1-5.53 1.35 12.37 12.37 0 0 1-6.06-1.47 10.89 10.89 0 0 1-4.21-4.21 11.73 11.73 0 0 1-1.54-5.88 10.93 10.93 0 0 1 2.86-7.53 11.28 11.28 0 0 1 8.83-3.81 13.46 13.46 0 0 1 5.32 1.05 12.18 12.18 0 0 1 4.08 3.06zM226.18 242.93h4.21l8.39 21.8h-4.31l-1.7-4.49h-8.89l-1.78 4.49h-4.31zm2.13 5.78l-2.91 7.48h5.8zM253.49 242.93h4.4a14.26 14.26 0 0 1 5.14.67 5.12 5.12 0 0 1 2.49 2.13 6.5 6.5 0 0 1 .92 3.53 5.91 5.91 0 0 1-1.2 3.79 6.15 6.15 0 0 1-3.23 2.1 18.62 18.62 0 0 1-4.37.34v9.23h-4.15zm4.15 8.52H259a7.22 7.22 0 0 0 2.16-.22 1.91 1.91 0 0 0 .95-.73 2.15 2.15 0 0 0 .35-1.25 2 2 0 0 0-1-1.84 5.61 5.61 0 0 0-2.64-.43h-1.17zM292.33 242.38a10.79 10.79 0 0 1 7.94 3.35 11.13 11.13 0 0 1 3.33 8.17 11 11 0 0 1-3.29 8.08 11.36 11.36 0 0 1-16.11-.09 11.46 11.46 0 0 1 8.12-19.5zm0 4.06a6.83 6.83 0 0 0-5.08 2.1 7.34 7.34 0 0 0-2.06 5.35 7 7 0 0 0 2.59 5.72 7.1 7.1 0 0 0 4.62 1.65 6.75 6.75 0 0 0 5-2.13 7.69 7.69 0 0 0 0-10.52 6.81 6.81 0 0 0-5.12-2.16zM319.32 242.93h4.4a14.39 14.39 0 0 1 5.14.65 5.24 5.24 0 0 1 2.48 2.13 6.56 6.56 0 0 1 .93 3.54 6 6 0 0 1-1 3.6 6.22 6.22 0 0 1-3.1 2.18l5.16 9.69h-4.54l-4.91-9.23h-.38v9.23h-4.15zm4.15 8.52h1.3a5.08 5.08 0 0 0 2.73-.52 1.93 1.93 0 0 0 .76-1.72 2.06 2.06 0 0 0-.37-1.23 2 2 0 0 0-1-.76 7.41 7.41 0 0 0-2.28-.24h-1.14zM348.18 242.93h11.9v4.06h-7.78v3.95h7.78v3.98h-7.78v5.74h7.78v4.07h-11.9v-21.8z"/></g></g></svg>